<?xml version="1.0" encoding="iso-8859-1"?>
<!-- Generator: Adobe Illustrator 19.0.0, SVG Export Plug-In . SVG Version: 6.00 Build 0)  -->
<svg version="1.1" id="Layer_1" xmlns="http://www.w3.org/2000/svg" xmlns:xlink="http://www.w3.org/1999/xlink" x="0px" y="0px"
	 viewBox="0 0 512.001 512.001" style="enable-background:new 0 0 512.001 512.001;" xml:space="preserve">
<path style="fill:#47CEAC;" d="M512.001,256.006c0,141.395-114.606,255.998-255.996,255.994
	C114.606,512.004,0.001,397.402,0.001,256.006C-0.007,114.61,114.606,0,256.005,0C397.395,0,512.001,114.614,512.001,256.006z"/>
<path style="fill:#36BB9A;" d="M503.199,322.599c-0.228-0.224-0.45-0.449-0.679-0.679c-0.354-0.4-147.483-147.479-147.866-147.866
	c-0.356-0.402-0.756-0.753-1.141-1.141c-0.354-0.4-0.753-0.75-1.136-1.136c-3.792-4.279-9.233-7.926-15.662-7.926h-7.075
	c-0.319-0.386-0.667-0.711-1.059-1.022c-0.34-0.429-66.679-66.768-67.108-67.108c-1.297-1.638-3.217-2.754-5.472-2.754
	c-3.918,0-7.089,3.17-7.089,7.088V210.65c-0.278-0.315-0.595-0.56-0.925-0.821c-0.34-0.43-0.708-0.798-1.138-1.139
	c-0.34-0.43-41.655-41.745-42.085-42.085c-1.298-1.638-3.217-2.754-5.471-2.754h-24.006c-8.306,0-15.042,6.071-18.601,11.789
	L85.878,290.861v106.203c0,6.352,2.745,12.036,7.056,16.051c0.367,0.395,0.745,0.771,1.139,1.139
	c0.366,0.395,84.913,84.94,85.307,85.307c0.357,0.385,0.724,0.749,1.108,1.108c23.872,7.358,49.229,11.332,75.517,11.332
	C374.353,512.003,473.885,431.69,503.199,322.599z"/>
<g>
	<path style="fill:#F4F6F9;" d="M355.294,175.604c-3.537-5.683-10.273-11.754-18.579-11.754h-24.006
		c-3.918,0-7.088,3.17-7.088,7.088c0,3.918,3.17,7.088,7.088,7.088h24.006c1.932,0,4.749,2.18,6.528,5.033l66.603,108.383h-88.484
		c-6.887,0-12.868,4.874-14.219,11.588l-3.835,19.188c-0.81,4.057-5.094,4.666-7.58,4.666h-79.455c-1.543,0-6.653-0.359-7.594-5.108
		l-3.828-17.936c-1.405-7.068-7.51-12.398-14.211-12.398h-88.484l66.582-108.348c1.799-2.886,4.618-5.067,6.548-5.067h24.006
		c3.918,0,7.088-3.17,7.088-7.088s-3.17-7.088-7.088-7.088h-24.007c-8.307,0-15.042,6.07-18.601,11.789l-70.807,115.22v106.203
		c0,12.114,9.829,21.971,21.909,21.971h296.428c12.079,0,21.909-9.857,21.909-21.971V290.861L355.294,175.604z M411.947,397.064
		c0,4.299-3.468,7.794-7.732,7.794H107.786c-4.265,0-7.732-3.495-7.732-7.794v-91.444l90.205-0.069
		c0.187,0.097,0.595,0.575,0.706,1.149l3.828,17.936c1.952,9.823,10.585,16.427,21.479,16.427h79.455
		c11.103,0,19.541-6.306,21.479-16.067l4.154-19.376h90.587V397.064z"/>
	<path style="fill:#F4F6F9;" d="M256.001,258.935l33.365-33.365c2.769-2.769,2.769-7.254,0-10.023
		c-2.769-2.769-7.254-2.769-10.023,0l-16.254,16.254V100.053c0-3.918-3.17-7.088-7.088-7.088c-3.918,0-7.088,3.17-7.088,7.088
		v131.746l-16.254-16.254c-2.769-2.769-7.254-2.769-10.023,0c-2.769,2.769-2.769,7.254,0,10.023L256.001,258.935z"/>
</g>
<g>
</g>
<g>
</g>
<g>
</g>
<g>
</g>
<g>
</g>
<g>
</g>
<g>
</g>
<g>
</g>
<g>
</g>
<g>
</g>
<g>
</g>
<g>
</g>
<g>
</g>
<g>
</g>
<g>
</g>
</svg>
